<?xml version="1.0" standalone="no"?><!DOCTYPE svg PUBLIC "-//W3C//DTD SVG 1.1//EN" "http://www.w3.org/Graphics/SVG/1.1/DTD/svg11.dtd"><svg t="1720941977549" class="icon" viewBox="0 0 1024 1024" version="1.1" xmlns="http://www.w3.org/2000/svg" p-id="3505" xmlns:xlink="http://www.w3.org/1999/xlink" width="200" height="200"><path d="M896 810.666667c-8.533333 0-17.066667-4.266667-25.6-8.533333l-384-256C477.866667 537.6 469.333333 524.8 469.333333 512s8.533333-25.6 17.066667-34.133333l384-256c12.8-8.533333 29.866667-8.533333 42.666667 0C930.133333 226.133333 938.666667 238.933333 938.666667 256l0 512c0 17.066667-8.533333 29.866667-21.333333 38.4C908.8 810.666667 904.533333 810.666667 896 810.666667zM588.8 512l264.533333 174.933333L853.333333 337.066667 588.8 512z" p-id="3506"></path><path d="M512 810.666667c-8.533333 0-17.066667-4.266667-25.6-8.533333l-384-256C93.866667 537.6 85.333333 524.8 85.333333 512s8.533333-25.6 17.066667-34.133333l384-256c12.8-8.533333 29.866667-8.533333 42.666667 0C546.133333 226.133333 554.666667 238.933333 554.666667 256l0 512c0 17.066667-8.533333 29.866667-21.333333 38.4C524.8 810.666667 520.533333 810.666667 512 810.666667zM204.8 512l264.533333 174.933333L469.333333 337.066667 204.8 512z" p-id="3507"></path></svg>