<svg width="1440" height="1024" viewBox="0 0 1440 1024" fill="none" xmlns="http://www.w3.org/2000/svg">
<rect width="1440" height="1024" rx="40" fill="#111111"/>
<path d="M172.9 63.06V84H168.7V70.38L163.09 84H159.91L154.27 70.38V84H150.07V63.06H154.84L161.5 78.63L168.16 63.06H172.9ZM175.972 75.63C175.972 73.95 176.302 72.46 176.962 71.16C177.642 69.86 178.552 68.86 179.692 68.16C180.852 67.46 182.142 67.11 183.562 67.11C184.802 67.11 185.882 67.36 186.802 67.86C187.742 68.36 188.492 68.99 189.052 69.75V67.38H193.282V84H189.052V81.57C188.512 82.35 187.762 83 186.802 83.52C185.862 84.02 184.772 84.27 183.532 84.27C182.132 84.27 180.852 83.91 179.692 83.19C178.552 82.47 177.642 81.46 176.962 80.16C176.302 78.84 175.972 77.33 175.972 75.63ZM189.052 75.69C189.052 74.67 188.852 73.8 188.452 73.08C188.052 72.34 187.512 71.78 186.832 71.4C186.152 71 185.422 70.8 184.642 70.8C183.862 70.8 183.142 70.99 182.482 71.37C181.822 71.75 181.282 72.31 180.862 73.05C180.462 73.77 180.262 74.63 180.262 75.63C180.262 76.63 180.462 77.51 180.862 78.27C181.282 79.01 181.822 79.58 182.482 79.98C183.162 80.38 183.882 80.58 184.642 80.58C185.422 80.58 186.152 80.39 186.832 80.01C187.512 79.61 188.052 79.05 188.452 78.33C188.852 77.59 189.052 76.71 189.052 75.69ZM201.584 69.78C202.124 69.02 202.864 68.39 203.804 67.89C204.764 67.37 205.854 67.11 207.074 67.11C208.494 67.11 209.774 67.46 210.914 68.16C212.074 68.86 212.984 69.86 213.644 71.16C214.324 72.44 214.664 73.93 214.664 75.63C214.664 77.33 214.324 78.84 213.644 80.16C212.984 81.46 212.074 82.47 210.914 83.19C209.774 83.91 208.494 84.27 207.074 84.27C205.854 84.27 204.774 84.02 203.834 83.52C202.914 83.02 202.164 82.39 201.584 81.63V91.92H197.384V67.38H201.584V69.78ZM210.374 75.63C210.374 74.63 210.164 73.77 209.744 73.05C209.344 72.31 208.804 71.75 208.124 71.37C207.464 70.99 206.744 70.8 205.964 70.8C205.204 70.8 204.484 71 203.804 71.4C203.144 71.78 202.604 72.34 202.184 73.08C201.784 73.82 201.584 74.69 201.584 75.69C201.584 76.69 201.784 77.56 202.184 78.3C202.604 79.04 203.144 79.61 203.804 80.01C204.484 80.39 205.204 80.58 205.964 80.58C206.744 80.58 207.464 80.38 208.124 79.98C208.804 79.58 209.344 79.01 209.744 78.27C210.164 77.53 210.374 76.65 210.374 75.63ZM224.076 84.27C222.716 84.27 221.496 84.03 220.416 83.55C219.336 83.05 218.476 82.38 217.836 81.54C217.216 80.7 216.876 79.77 216.816 78.75H221.046C221.126 79.39 221.436 79.92 221.976 80.34C222.536 80.76 223.226 80.97 224.046 80.97C224.846 80.97 225.466 80.81 225.906 80.49C226.366 80.17 226.596 79.76 226.596 79.26C226.596 78.72 226.316 78.32 225.756 78.06C225.216 77.78 224.346 77.48 223.146 77.16C221.906 76.86 220.886 76.55 220.086 76.23C219.306 75.91 218.626 75.42 218.046 74.76C217.486 74.1 217.206 73.21 217.206 72.09C217.206 71.17 217.466 70.33 217.986 69.57C218.526 68.81 219.286 68.21 220.266 67.77C221.266 67.33 222.436 67.11 223.776 67.11C225.756 67.11 227.336 67.61 228.516 68.61C229.696 69.59 230.346 70.92 230.466 72.6H226.446C226.386 71.94 226.106 71.42 225.606 71.04C225.126 70.64 224.476 70.44 223.656 70.44C222.896 70.44 222.306 70.58 221.886 70.86C221.486 71.14 221.286 71.53 221.286 72.03C221.286 72.59 221.566 73.02 222.126 73.32C222.686 73.6 223.556 73.89 224.736 74.19C225.936 74.49 226.926 74.8 227.706 75.12C228.486 75.44 229.156 75.94 229.716 76.62C230.296 77.28 230.596 78.16 230.616 79.26C230.616 80.22 230.346 81.08 229.806 81.84C229.286 82.6 228.526 83.2 227.526 83.64C226.546 84.06 225.396 84.27 224.076 84.27Z" fill="white"/>
<circle cx="83" cy="74" r="32" fill="#F2F2F2"/>
<path d="M105.67 73.1C105.665 85.555 95.5502 95.855 82.7352 95.67C70.4752 95.495 60.5202 85.485 60.5352 73.05C60.5452 60.605 70.7102 50.495 83.1502 50.525C95.5702 50.555 105.665 60.64 105.67 73.1ZM61.0002 73.075C61.0052 85.365 70.9852 95.285 83.2752 95.195C95.3302 95.105 105.265 85.285 105.185 73.01C105.145 66.625 102.755 61.2 98.0852 56.87C93.5552 52.675 88.1202 50.745 81.9502 51.025C70.8552 51.535 61.0752 60.675 61.0002 73.075Z" fill="#123EDB"/>
<path d="M83.1002 88.945C74.3602 88.945 67.2802 81.85 67.2652 73.105C67.2502 64.345 74.4002 57.24 83.1252 57.255C91.8352 57.27 99.0052 64.345 98.9452 73.21C98.8802 81.93 91.8202 88.92 83.1002 88.945ZM98.6102 73.115C98.5952 64.485 91.6302 57.585 83.0852 57.59C74.5002 57.595 67.6552 64.565 67.5902 72.995C67.5252 81.48 74.5252 88.975 83.8002 88.595C91.7402 88.265 98.5602 81.76 98.6102 73.115Z" fill="#123EDB"/>
<path d="M73.15 60.055C72.985 60.065 72.86 60.095 72.745 60.075C72.585 60.05 72.425 59.985 72.225 59.925C72.385 59.88 72.515 59.84 72.675 59.795C72.485 59.54 72.3 59.295 72.09 59.015C71.83 59.495 71.95 60.07 71.555 60.48C71.575 60.365 71.58 60.245 71.62 60.14C71.71 59.905 71.63 59.765 71.42 59.645C71.07 59.445 70.74 59.225 70.395 59.025C70.315 58.98 70.215 58.97 70.125 58.935C70.08 58.915 70.015 58.875 70.005 58.84C70 58.805 70.055 58.715 70.08 58.715C70.19 58.715 70.325 58.71 70.405 58.765C70.685 58.96 70.94 59.185 71.25 59.43C71.365 59.045 71.475 58.69 71.59 58.31C71.36 58.31 71.265 58.63 71.025 58.415C71.11 58.28 71.2 58.135 71.3 57.98C71.275 57.945 71.235 57.88 71.185 57.805C70.96 57.965 70.88 58.17 70.91 58.425C70.915 58.46 70.945 58.5 70.935 58.525C70.885 58.625 70.83 58.725 70.765 58.82C70.75 58.84 70.66 58.83 70.66 58.83C70.645 58.735 70.605 58.63 70.635 58.55C70.72 58.32 70.805 58.085 70.945 57.89C71.06 57.73 71.08 57.62 70.955 57.475C70.9 57.41 70.86 57.34 70.785 57.23C70.74 57.37 70.7 57.48 70.665 57.585C70.625 57.715 70.54 57.76 70.405 57.725C70.05 57.64 70.06 57.65 70.28 57.35C70.385 57.205 70.46 57.035 70.57 56.84C70.34 56.55 70.1 56.255 69.86 55.95C69.985 55.805 70.19 55.845 70.3 56.065C70.405 56.27 70.52 56.47 70.63 56.675C70.73 56.63 70.815 56.58 70.905 56.565C70.95 56.555 71.01 56.61 71.065 56.635C71.035 56.675 71.015 56.74 70.98 56.755C70.8 56.815 70.82 56.92 70.895 57.05C70.975 57.195 71.05 57.34 71.14 57.52C71.2 57.405 71.245 57.335 71.285 57.26C71.115 57.83 71.535 58.03 71.89 58.3C71.885 58.345 71.875 58.43 71.86 58.51C72.05 58.1 71.825 57.075 71.505 56.88C71.615 56.84 71.71 56.775 71.76 56.8C71.855 56.845 71.985 56.935 72 57.02C72.07 57.42 72.105 57.825 72.155 58.27C72.27 58.255 72.405 58.245 72.54 58.22C72.855 58.17 73.185 58.195 73.47 58C73.505 57.975 73.565 57.96 73.61 57.965C73.675 57.97 73.74 58 73.8 58.02C73.775 58.075 73.765 58.135 73.73 58.185C73.57 58.43 73.51 58.45 73.23 58.365C73.17 58.35 73.105 58.34 73.045 58.34C72.785 58.355 72.525 58.38 72.265 58.4C72.055 58.42 71.955 58.625 72.085 58.79C72.425 59.19 72.76 59.585 73.15 60.055ZM71.73 58.67C71.62 58.95 71.73 59.31 71.385 59.51C71.52 59.56 71.605 59.59 71.695 59.62C71.875 59.12 71.89 58.775 71.73 58.67ZM95.765 58.625C96.025 58.645 96.29 58.64 96.54 58.69C96.73 58.725 96.785 58.675 96.78 58.525C96.48 58.485 96.195 58.445 95.905 58.405C95.885 58.4 95.86 58.39 95.85 58.375C95.725 58.12 95.47 58.14 95.25 58.09C95.2 58.08 95.145 58.08 95.11 58.05C94.95 57.915 94.825 57.92 94.74 58.13C94.735 58.14 94.705 58.14 94.665 58.155C94.655 58.115 94.63 58.075 94.64 58.04C94.67 57.9 94.625 57.8 94.505 57.715C94.455 57.675 94.44 57.59 94.405 57.525C94.42 57.515 94.435 57.5 94.455 57.49C94.545 57.52 94.635 57.55 94.75 57.585C94.83 57.325 94.91 57.07 94.99 56.81C95.22 57 95.205 57.025 95.06 57.23C94.98 57.34 94.97 57.5 94.945 57.64C94.94 57.665 95.02 57.735 95.06 57.735C95.105 57.735 95.175 57.69 95.195 57.645C95.325 57.36 95.44 57.065 95.565 56.775L95.61 56.685C95.845 56.81 95.85 56.92 95.595 57.295C95.79 57.215 95.94 57.155 96.04 57.115C96.07 56.985 96.09 56.9 96.11 56.815C96.185 56.835 96.255 56.855 96.355 56.885C96.37 56.84 96.4 56.765 96.425 56.69C96.595 56.795 96.67 57 96.555 57.13C96.455 57.245 96.41 57.36 96.385 57.5C96.345 57.74 96.22 57.93 95.985 58.035C96.12 58.195 96.27 58.19 96.695 57.98C96.645 57.94 96.595 57.895 96.51 57.825C96.8 57.735 97.13 58.005 97.275 57.615C97.21 57.565 97.11 57.505 97.04 57.425C97.005 57.385 97.015 57.305 97 57.24C97.06 57.245 97.13 57.235 97.175 57.265C97.315 57.345 97.465 57.43 97.585 57.535C97.7 57.64 97.67 57.735 97.515 57.8C97.19 57.945 96.87 58.105 96.545 58.31C96.6 58.325 96.65 58.335 96.705 58.345C96.9 58.38 97.02 58.52 97.03 58.69C97.04 58.815 96.94 58.95 96.88 59.08C96.86 59.125 96.815 59.17 96.77 59.195C96.725 59.22 96.645 59.25 96.615 59.23C96.45 59.11 96.305 58.965 96.135 58.855C96.025 58.785 95.89 58.755 95.765 58.705C95.76 58.675 95.76 58.65 95.765 58.625ZM96.03 57.76C96.07 57.715 96.16 57.645 96.215 57.555C96.245 57.51 96.235 57.415 96.205 57.365C96.185 57.33 96.1 57.32 96.05 57.325C95.905 57.34 95.755 57.365 95.615 57.4C95.565 57.41 95.5 57.45 95.475 57.5C95.415 57.61 95.37 57.725 95.3 57.88C95.44 57.89 95.56 57.895 95.62 57.9C95.66 57.74 95.69 57.625 95.72 57.515C95.81 57.585 95.9 57.655 96.03 57.76ZM73.115 90.77C73.02 90.715 72.95 90.675 72.86 90.62C73.22 89.94 73.575 89.27 73.935 88.605C74.27 88.7 74.28 88.725 74.3 89.05C74.335 89.655 74.38 90.26 74.47 90.88C74.745 90.365 75.025 89.85 75.31 89.315C75.405 89.365 75.48 89.405 75.57 89.45C75.205 90.135 74.845 90.815 74.49 91.475C74.21 91.415 74.145 91.25 74.135 91.01C74.105 90.41 74.05 89.815 73.96 89.195C73.68 89.715 73.4 90.235 73.115 90.77ZM63.705 67.02C63.705 66.735 63.86 66.65 64.085 66.605C64.61 66.495 65.125 66.365 65.645 66.24C65.715 66.225 65.785 66.195 65.855 66.135C65.3 65.94 64.745 65.75 64.18 65.55C64.22 65.455 64.25 65.37 64.29 65.275C65.02 65.525 65.74 65.775 66.45 66.02C66.405 66.36 66.38 66.38 66.04 66.455C65.46 66.585 64.875 66.72 64.285 66.905C64.835 67.095 65.39 67.29 65.96 67.485C65.93 67.58 65.905 67.66 65.875 67.77C65.145 67.515 64.425 67.27 63.705 67.02ZM94.265 87.94C94.635 88.395 95 88.855 95.385 89.325C95.305 89.39 95.24 89.45 95.16 89.515C94.675 88.915 94.195 88.325 93.715 87.735C93.915 87.475 93.95 87.465 94.24 87.565C94.78 87.75 95.32 87.935 95.855 88.12C95.9 88.135 95.945 88.145 96.05 88.17C95.645 87.665 95.275 87.21 94.895 86.74C94.97 86.675 95.035 86.62 95.12 86.55C95.605 87.15 96.085 87.745 96.565 88.335C96.43 88.54 96.275 88.58 96.04 88.49C95.525 88.295 95 88.135 94.48 87.96L94.285 87.9C94.28 87.92 94.27 87.93 94.265 87.94ZM101.93 77.36C102.095 77.175 102.285 77.2 102.485 77.24C102.68 77.28 102.88 77.3 103.08 77.335C103.065 77.655 103.04 77.675 102.7 77.61C102.68 77.605 102.66 77.605 102.64 77.6C102 77.44 102.005 77.575 101.865 78.095C101.825 78.245 101.785 78.395 101.74 78.575C101.98 78.64 102.215 78.705 102.45 78.77C102.715 78.84 102.715 78.84 102.6 79.135C101.875 78.94 101.145 78.745 100.385 78.545C100.415 78.415 100.445 78.295 100.475 78.18C100.55 77.9 100.625 77.625 100.71 77.35C100.795 77.09 100.96 76.905 101.25 76.9C101.53 76.895 101.755 77.01 101.875 77.28C101.885 77.295 101.9 77.315 101.93 77.36ZM101.705 77.67C101.705 77.4 101.585 77.275 101.35 77.23C101.155 77.195 101.025 77.285 100.955 77.465C100.92 77.55 100.9 77.64 100.875 77.725C100.7 78.355 100.7 78.355 101.355 78.475C101.37 78.48 101.385 78.49 101.395 78.485C101.435 78.465 101.495 78.445 101.505 78.415C101.58 78.15 101.65 77.88 101.705 77.67ZM65.205 71.01C65.165 71.46 65.145 71.89 65.085 72.315C65.055 72.535 64.925 72.725 64.68 72.785C64.375 72.86 64.185 72.785 63.915 72.48C63.77 72.695 63.55 72.69 63.32 72.69C63.135 72.685 62.955 72.71 62.75 72.725C62.755 72.64 62.765 72.52 62.78 72.375C63 72.375 63.21 72.37 63.42 72.375C63.63 72.38 63.765 72.285 63.79 72.08C63.82 71.815 63.835 71.55 63.855 71.25C63.525 71.22 63.215 71.195 62.89 71.165V70.86C63.645 70.905 64.4 70.955 65.205 71.01ZM64.895 71.48C64.94 71.325 64.85 71.29 64.715 71.29C64.57 71.285 64.42 71.275 64.275 71.26C64.175 71.25 64.11 71.275 64.105 71.385C64.09 71.615 64.065 71.85 64.065 72.08C64.065 72.345 64.2 72.475 64.45 72.485C64.68 72.495 64.815 72.38 64.85 72.12C64.875 71.91 64.88 71.695 64.895 71.48ZM72.5 89.055C72.65 89.315 72.47 89.49 72.355 89.685C72.27 89.83 72.195 89.985 72.1 90.155C72.035 90.11 71.935 90.04 71.815 89.955C71.93 89.775 72.04 89.605 72.145 89.43C72.285 89.2 72.27 89.07 72.06 88.9C71.86 88.745 71.655 88.6 71.425 88.43C71.275 88.63 71.135 88.825 70.995 89.015C70.825 89.245 70.825 89.245 70.59 89.04C71.04 88.42 71.49 87.8 71.955 87.16C72.31 87.44 72.66 87.7 72.995 87.975C73.2 88.14 73.255 88.36 73.15 88.6C73.045 88.845 72.875 89.025 72.58 89.025C72.56 89.035 72.54 89.045 72.5 89.055ZM71.56 88.245C71.85 88.43 72.115 88.61 72.4 88.765C72.59 88.865 72.715 88.715 72.81 88.57C72.9 88.435 72.92 88.275 72.795 88.165C72.56 87.96 72.305 87.78 72.05 87.58C71.88 87.81 71.735 88.01 71.56 88.245ZM63.115 69.145C63.12 68.31 63.68 67.845 64.52 68.005C65.52 68.195 65.85 69.015 65.335 69.86C65.16 70.145 64.865 70.255 64.54 70.27C64.095 70.29 63.71 70.15 63.395 69.835C63.2 69.64 63.095 69.395 63.115 69.145ZM64.44 69.985C64.775 69.95 65.04 69.84 65.185 69.545C65.325 69.265 65.345 68.965 65.145 68.705C64.89 68.38 64.525 68.275 64.125 68.3C63.725 68.32 63.49 68.54 63.41 68.925C63.33 69.3 63.455 69.59 63.81 69.77C64.01 69.865 64.23 69.91 64.44 69.985ZM66.18 82.925C66.235 83.005 66.28 83.07 66.325 83.135C65.995 83.585 66.08 84.06 66.525 84.29C66.66 84.36 66.785 84.37 66.92 84.27C67.05 84.17 67.095 84.05 67.045 83.9C66.97 83.66 66.88 83.42 66.81 83.18C66.71 82.835 66.76 82.645 66.975 82.5C67.245 82.31 67.54 82.305 67.795 82.505C68.055 82.71 68.205 82.985 68.24 83.315C68.265 83.585 68.135 83.77 67.91 83.915C67.86 83.84 67.815 83.77 67.77 83.705C68.01 83.29 67.98 83.02 67.665 82.74C67.525 82.615 67.37 82.615 67.215 82.705C67.06 82.79 67.06 82.93 67.105 83.075C67.185 83.33 67.285 83.58 67.36 83.835C67.445 84.15 67.36 84.37 67.115 84.535C66.89 84.685 66.59 84.69 66.36 84.51C66.12 84.32 65.93 84.085 65.845 83.785C65.735 83.425 65.84 83.16 66.18 82.925ZM101.9 73.725C101.92 73.925 101.85 74.005 101.67 74.05C101.45 74.105 101.4 74.32 101.37 74.515C101.34 74.715 101.355 74.92 101.545 75.05C101.72 75.17 101.915 75.12 102 74.925C102.09 74.71 102.16 74.49 102.23 74.27C102.37 73.83 102.67 73.635 103.07 73.77C103.2 73.815 103.34 73.92 103.405 74.035C103.605 74.395 103.595 74.78 103.425 75.155C103.285 75.465 103.035 75.585 102.675 75.56C102.625 75.4 102.63 75.285 102.845 75.255C103.08 75.225 103.195 75.065 103.245 74.85C103.305 74.595 103.32 74.34 103.13 74.13C102.99 73.98 102.715 74.01 102.62 74.195C102.525 74.38 102.465 74.585 102.39 74.78C102.36 74.86 102.335 74.94 102.305 75.015C102.18 75.305 102.03 75.415 101.77 75.41C101.49 75.4 101.235 75.235 101.15 74.98C101.035 74.63 101.085 74.295 101.285 73.99C101.42 73.765 101.63 73.68 101.9 73.725ZM65.59 78.315C65.36 78.395 65.15 78.465 64.925 78.54C65.06 78.955 65.185 79.34 65.315 79.745C65.23 79.775 65.155 79.8 65.065 79.83C64.93 79.425 64.8 79.035 64.665 78.62C64.415 78.7 64.18 78.775 63.92 78.86C64.065 79.305 64.205 79.74 64.35 80.195C64.27 80.225 64.195 80.25 64.09 80.29C63.91 79.74 63.74 79.21 63.56 78.655C64.305 78.415 65.02 78.18 65.765 77.935C65.94 78.475 66.115 79 66.29 79.54C66.195 79.575 66.12 79.605 66.025 79.64C65.88 79.195 65.735 78.765 65.59 78.315ZM99.535 81.295C99.755 81.4 99.955 81.49 100.165 81.59C100.35 81.205 100.53 80.825 100.715 80.435C100.8 80.48 100.87 80.51 100.95 80.55C100.77 80.935 100.6 81.31 100.42 81.705C100.655 81.815 100.875 81.92 101.125 82.035C101.33 81.605 101.525 81.19 101.725 80.765C101.81 80.805 101.875 80.835 101.97 80.88C101.73 81.395 101.495 81.905 101.25 82.435C100.545 82.105 99.855 81.785 99.145 81.455C99.385 80.94 99.615 80.445 99.86 79.925C99.945 79.965 100.02 80 100.115 80.045C99.92 80.46 99.735 80.865 99.535 81.295ZM68.645 87.35C69.18 86.775 69.695 86.22 70.225 85.655C70.64 86.04 71.045 86.42 71.46 86.805C71.395 86.875 71.335 86.935 71.27 87.005C70.93 86.69 70.6 86.385 70.255 86.065C70.1 86.235 69.95 86.395 69.78 86.585C70.095 86.88 70.4 87.165 70.71 87.46C70.645 87.53 70.595 87.585 70.535 87.65C70.22 87.36 69.915 87.075 69.59 86.78C69.405 86.98 69.235 87.165 69.055 87.36C69.4 87.685 69.735 87.995 70.06 88.3C70.005 88.375 69.96 88.44 69.9 88.525C69.47 88.12 69.065 87.745 68.645 87.35ZM64.095 76.05C63.72 76.12 63.38 76.185 63.02 76.25C63.005 76.135 62.995 76.045 62.98 75.94C63.74 75.79 64.48 75.65 65.245 75.5C65.265 75.61 65.285 75.7 65.305 75.805C64.995 75.87 64.69 75.93 64.37 76C64.445 76.395 64.52 76.775 64.6 77.17C64.845 77.125 65.07 77.085 65.295 77.045C65.565 76.995 65.57 76.995 65.57 77.315C64.825 77.46 64.08 77.605 63.32 77.75C63.3 77.635 63.285 77.55 63.27 77.44C63.56 77.385 63.84 77.32 64.12 77.275C64.28 77.25 64.33 77.2 64.285 77.025C64.205 76.715 64.16 76.395 64.095 76.05ZM92.165 88.67C92.255 88.62 92.335 88.58 92.435 88.525C92.58 88.795 92.73 89.055 92.86 89.325C92.995 89.595 93.14 89.865 93.22 90.155C93.265 90.32 93.225 90.54 93.145 90.695C92.82 91.325 91.96 91.365 91.59 90.77C91.315 90.33 91.08 89.865 90.82 89.395C90.925 89.34 91.01 89.295 91.11 89.24C91.345 89.685 91.57 90.115 91.8 90.54C92.005 90.915 92.335 91.005 92.68 90.79C92.975 90.605 93.03 90.32 92.84 89.96C92.65 89.6 92.455 89.24 92.265 88.88C92.23 88.81 92.205 88.745 92.165 88.67ZM81.05 92.76C81.135 92.765 81.21 92.77 81.285 92.775C81.445 93.125 81.54 93.2 81.8 93.16C82.035 93.125 82.185 92.89 82.255 92.47C82.08 92.505 81.89 92.58 81.71 92.575C81.28 92.555 81.05 92.225 81.09 91.74C81.125 91.345 81.455 91.055 81.845 91.08C82.3 91.11 82.56 91.385 82.595 91.91C82.62 92.3 82.55 92.685 82.355 93.03C82.13 93.425 81.59 93.53 81.245 93.245C81.085 93.125 81.025 92.965 81.05 92.76ZM81.37 91.87C81.37 92.165 81.525 92.33 81.815 92.335C82.09 92.34 82.27 92.14 82.275 91.82C82.28 91.525 82.115 91.34 81.84 91.34C81.56 91.34 81.37 91.55 81.37 91.87ZM66.95 81C66.365 81.585 65.795 82.16 65.22 82.73C65.04 82.475 65.04 82.475 65.26 82.26C65.595 81.94 65.595 81.94 65.4 81.52C65.21 81.105 65.21 81.105 64.74 81.15C64.46 81.175 64.46 81.175 64.355 80.88C64.68 80.85 64.995 80.82 65.315 80.795C65.71 80.765 66.1 80.73 66.495 80.705C66.82 80.685 66.82 80.69 66.95 81ZM65.78 81.71C66.015 81.455 66.235 81.215 66.44 80.995C66.16 81.02 65.835 81.05 65.485 81.085C65.59 81.31 65.685 81.51 65.78 81.71ZM93.89 60.125C94.11 59.93 94.315 59.745 94.525 59.56C94.52 59.535 94.51 59.505 94.505 59.48C94.41 59.47 94.315 59.455 94.22 59.46C93.995 59.47 93.78 59.235 93.835 59.02C93.97 59.075 94.1 59.135 94.23 59.185C94.36 59.23 94.495 59.265 94.66 59.315C94.73 59.2 94.805 59.075 94.89 58.925C94.71 58.905 94.58 58.885 94.45 58.87C94.445 58.855 94.44 58.845 94.43 58.83C94.51 58.785 94.585 58.74 94.665 58.695C94.615 58.605 94.555 58.515 94.52 58.415C94.505 58.375 94.54 58.305 94.575 58.275C94.6 58.25 94.675 58.255 94.71 58.27C94.89 58.36 95.07 58.45 95.24 58.555C95.32 58.605 95.385 58.68 95.435 58.76C95.455 58.79 95.43 58.87 95.4 58.91C95.385 58.93 95.315 58.905 95.27 58.895C95.21 58.885 95.155 58.865 95.085 58.845C95.21 59.14 95.21 59.14 94.9 59.4C94.995 59.43 95.07 59.455 95.145 59.475C95.435 59.565 95.67 59.89 95.645 60.185C95.64 60.245 95.59 60.33 95.54 60.345C95.5 60.36 95.405 60.3 95.38 60.25C95.33 60.14 95.305 60.015 95.29 59.895C95.255 59.65 95.035 59.66 94.875 59.61C94.81 59.59 94.7 59.685 94.63 59.745C94.415 59.94 94.215 60.155 93.995 60.35C93.935 60.405 93.795 60.445 93.74 60.41C93.67 60.37 93.63 60.25 93.6 60.155C93.565 60.045 93.56 59.93 93.54 59.79C93.64 59.9 93.75 60 93.89 60.125ZM85.935 91.665C85.89 91.395 85.925 91.155 86.155 90.985C86.41 90.795 86.7 90.73 87.01 90.855C87.355 90.995 87.435 91.425 87.18 91.775C87.555 91.95 87.685 92.2 87.6 92.585C87.53 92.895 87.16 93.13 86.735 93.125C86.355 93.125 86.15 92.945 86.065 92.53C86.225 92.45 86.335 92.435 86.415 92.65C86.51 92.89 86.845 92.935 87.11 92.775C87.325 92.645 87.4 92.34 87.235 92.15C87.165 92.07 87.035 92.03 86.925 92.01C86.82 91.99 86.705 92.02 86.58 92.025C86.57 91.955 86.56 91.895 86.545 91.82C86.635 91.795 86.715 91.78 86.79 91.755C86.96 91.695 87.06 91.58 87.04 91.39C87.02 91.185 86.9 91.08 86.69 91.07C86.4 91.06 86.205 91.205 86.205 91.475C86.21 91.69 86.095 91.675 85.935 91.665ZM83.84 91.92C83.75 91.93 83.665 91.94 83.57 91.955C83.55 91.66 83.59 91.4 83.84 91.225C84.11 91.04 84.42 91.015 84.705 91.16C84.96 91.285 85.105 91.53 85.055 91.825C85.03 91.97 84.945 92.135 84.84 92.235C84.645 92.415 84.405 92.545 84.2 92.715C84.085 92.81 84 92.935 83.9 93.045C83.915 93.065 83.925 93.09 83.94 93.11C84.335 93.085 84.73 93.06 85.14 93.03C85.145 93.12 85.15 93.2 85.155 93.295C84.645 93.33 84.155 93.365 83.67 93.4C83.57 93.08 83.7 92.75 84.005 92.525C84.185 92.39 84.38 92.28 84.56 92.14C84.83 91.925 84.82 91.55 84.545 91.4C84.31 91.27 83.93 91.355 83.88 91.7C83.86 91.765 83.85 91.83 83.84 91.92ZM97.355 84.275C97.515 83.975 97.515 83.975 97.8 84.06C98.35 84.225 98.905 84.39 99.52 84.57C99.445 84.46 99.41 84.4 99.365 84.345C99.055 83.925 98.755 83.495 98.43 83.09C98.27 82.895 98.345 82.785 98.505 82.64C98.6 82.77 98.695 82.89 98.78 83.015C99.13 83.51 99.47 84.01 99.825 84.505C99.89 84.6 99.905 84.665 99.83 84.765C99.76 84.86 99.7 84.915 99.575 84.88C98.835 84.675 98.1 84.48 97.355 84.275ZM100.44 67.59C100.285 67.38 100.31 67.215 100.475 67.035C100.69 66.8 100.875 66.53 101.095 66.25C100.74 66.185 100.425 66.115 100.1 66.08C99.87 66.055 99.73 65.97 99.72 65.7C99.855 65.725 99.99 65.745 100.12 65.77C100.445 65.835 100.765 65.91 101.095 65.96C101.23 65.98 101.385 65.955 101.52 65.92C101.735 65.855 101.94 65.765 102.165 65.675C102.205 65.775 102.24 65.86 102.28 65.96C102.08 66.04 101.895 66.13 101.7 66.185C101.48 66.245 101.335 66.38 101.21 66.555C100.965 66.9 100.705 67.235 100.44 67.59ZM100.98 68.62C101.04 68.89 101.09 69.135 101.15 69.395C101.82 69.265 102.47 69.14 103.14 69.01C103.165 69.11 103.185 69.2 103.215 69.32C102.74 69.415 102.29 69.5 101.835 69.59C101.795 69.6 101.75 69.605 101.71 69.615C101.2 69.725 101.2 69.725 101.31 70.245C101.325 70.315 101.33 70.385 101.345 70.47C101.27 70.49 101.195 70.515 101.09 70.545C100.97 69.925 100.85 69.32 100.73 68.7C100.805 68.67 100.875 68.65 100.98 68.62ZM64.81 73.235C65.03 73.165 65.095 73.235 65.105 73.425C65.125 73.91 65.155 74.395 65.2 74.88C65.215 75.07 65.14 75.12 64.945 75.085C64.925 74.845 64.9 74.605 64.88 74.325C64.2 74.37 63.53 74.415 62.845 74.46V74.145C63.22 74.115 63.59 74.085 63.965 74.06C64.21 74.04 64.455 74.025 64.7 74.015C64.835 74.01 64.865 73.95 64.855 73.83C64.83 73.63 64.825 73.435 64.81 73.235ZM68.99 84.65C68.825 84.445 68.665 84.255 68.5 84.05C68.565 83.995 68.625 83.94 68.7 83.87C69.1 84.345 69.495 84.815 69.905 85.305C69.84 85.365 69.78 85.42 69.71 85.485C69.535 85.285 69.375 85.095 69.195 84.895C68.67 85.335 68.155 85.765 67.63 86.2C67.565 86.12 67.505 86.055 67.43 85.96C67.95 85.525 68.465 85.095 68.99 84.65ZM87.805 54.935C87.595 54.74 87.295 54.655 87.4 54.37C87.67 54.335 87.905 54.295 88.145 54.28C88.305 54.27 88.295 54.185 88.3 54.07C88.305 53.98 88.345 53.835 88.395 53.82C88.535 53.785 88.63 53.89 88.665 54.025C88.68 54.08 88.68 54.14 88.67 54.19C88.64 54.355 88.605 54.52 88.575 54.655C88.44 54.755 88.295 54.845 88.18 54.955C87.965 55.16 87.75 55.375 87.45 55.435C87.23 55.48 87.005 55.485 86.785 55.505C86.78 55.485 86.78 55.465 86.775 55.45L87.805 54.935ZM77.96 54.24C78.145 54.1 78.315 54.11 78.445 54.205C78.545 54.275 78.63 54.41 78.66 54.53C78.71 54.715 78.7 54.92 78.735 55.11C78.745 55.16 78.805 55.215 78.855 55.235C79.02 55.3 79.045 55.365 78.93 55.51C78.805 55.67 78.68 55.83 78.545 55.98C78.41 56.13 78.125 56.12 77.945 55.96C78.005 55.91 78.06 55.865 78.115 55.815C78.21 55.73 78.315 55.655 78.39 55.555C78.47 55.455 78.46 55.365 78.3 55.335C78.225 55.32 78.165 55.24 78.095 55.19C78.145 55.14 78.19 55.08 78.25 55.045C78.44 54.925 78.415 54.615 78.2 54.45C78.115 54.39 78.05 54.32 77.96 54.24ZM79.41 93.045C79.3 93.025 79.22 93.015 79.115 92.995C79.215 92.47 79.315 91.955 79.415 91.43C79.24 91.39 79.075 91.35 78.92 91.315C78.9 91.16 78.955 91.105 79.105 91.115C79.345 91.135 79.535 91.055 79.62 90.795C79.695 90.81 79.76 90.82 79.845 90.84C79.695 91.58 79.555 92.305 79.41 93.045ZM103.48 71.65C103.495 71.75 103.505 71.84 103.52 71.965C102.75 72.02 101.99 72.075 101.215 72.13C101.2 72.025 101.18 71.93 101.165 71.815C101.94 71.76 102.7 71.705 103.48 71.65ZM96.24 85.485C96.315 85.405 96.38 85.34 96.455 85.26C96.85 85.625 97.235 85.985 97.62 86.34C97.735 86.445 97.845 86.555 97.96 86.66C98.17 86.855 98.17 86.855 97.925 87.055C97.365 86.535 96.81 86.02 96.24 85.485ZM79.98 53.685C79.925 54.3 79.95 54.825 80.05 55.345C80.06 55.4 80.005 55.465 79.985 55.525C79.935 55.485 79.85 55.45 79.84 55.4C79.78 55.115 79.74 54.825 79.695 54.54C79.64 54.2 79.585 53.865 79.535 53.525C79.53 53.475 79.535 53.395 79.565 53.375C79.61 53.35 79.71 53.34 79.735 53.365C79.84 53.485 79.93 53.62 79.98 53.685ZM80.66 54.895C80.88 54.945 81.145 54.97 81.375 55.065C81.5 55.12 81.595 55.29 81.66 55.43C81.71 55.54 81.61 55.605 81.5 55.55C81.395 55.495 81.3 55.42 81.215 55.34C80.98 55.12 80.83 55.105 80.53 55.225C80.44 55.26 80.31 55.215 80.21 55.175C80.165 55.155 80.15 55.06 80.125 55C80.18 54.98 80.235 54.955 80.295 54.945C80.4 54.925 80.51 54.915 80.66 54.895ZM88.19 55.05C88.295 55.08 88.425 55.08 88.505 55.14C88.785 55.35 89.005 55.61 89.08 55.96C89.085 55.98 89.095 56.005 89.09 56.02C89.045 56.15 88.995 56.28 88.95 56.405C88.9 56.29 88.82 56.18 88.81 56.065C88.78 55.71 88.525 55.5 88.31 55.27C88.26 55.22 88.175 55.205 88.105 55.17C88.13 55.135 88.16 55.09 88.19 55.05ZM80.965 54C80.86 54.045 80.77 54.07 80.7 54.115C80.505 54.255 80.33 54.185 80.15 54.085C80.015 54.01 80.065 53.88 80.16 53.87C80.405 53.85 80.65 53.885 80.895 53.905C80.92 53.91 80.935 53.96 80.965 54ZM93.48 57.82C93.71 57.61 93.92 57.425 94.145 57.22C94.165 57.645 93.86 57.945 93.48 57.82ZM97.505 75.83C94.85 71.84 92.22 67.885 89.59 63.945C88.55 64.965 87.52 65.975 86.48 67C85.465 65.29 84.445 63.58 83.41 61.835C82.37 63.585 81.355 65.285 80.35 66.98C79.31 65.96 78.285 64.95 77.24 63.925C74.4 67.96 71.565 71.995 68.73 76.035C67.61 70.72 69.645 64.76 74.615 61.21C79.9 57.43 86.955 57.675 91.91 61.44C96.915 65.245 98.44 71.155 97.505 75.83ZM73.83 84.415C74.295 84.235 74.75 84.045 75.22 83.885C76.545 83.435 77.91 83.3 79.305 83.38C80.125 83.43 80.915 83.66 81.675 83.95C82.49 84.255 83.28 84.62 84.085 84.96C84.185 85.005 84.29 85.045 84.44 85.11C84.31 84.65 84.2 84.24 84.075 83.83C84.055 83.775 83.965 83.73 83.9 83.7C82.885 83.185 81.825 82.79 80.71 82.55C78.945 82.17 77.185 82.16 75.44 82.665C75.01 82.79 74.58 82.935 74.165 83.105C73.75 83.275 73.35 83.485 72.905 83.7C72.55 83.315 72.175 82.91 71.77 82.475C72.04 82.31 72.28 82.15 72.53 82.02C73.975 81.26 75.505 80.8 77.135 80.695C78.11 80.63 79.09 80.625 80.035 80.89C81 81.165 81.935 81.545 82.88 81.885C83.115 81.97 83.345 82.08 83.615 82.2C83.555 81.97 83.5 81.775 83.45 81.58C83.405 81.415 83.34 81.26 83.315 81.095C83.28 80.86 83.145 80.755 82.935 80.68C82.005 80.33 81.065 80.02 80.085 79.83C78.825 79.59 77.56 79.54 76.28 79.705C74.42 79.945 72.74 80.63 71.13 81.625C70.855 81.19 70.575 80.755 70.28 80.295C70.375 80.225 70.455 80.165 70.54 80.11C71.8 79.32 73.15 78.73 74.605 78.405C75.31 78.25 76.03 78.165 76.75 78.085C77.75 77.97 78.755 78.02 79.735 78.22C80.46 78.37 81.175 78.615 81.87 78.88C82.84 79.25 83.785 79.695 84.75 80.08C85.65 80.445 86.58 80.715 87.54 80.88C88.635 81.07 89.735 81.165 90.845 81.13C92.355 81.08 93.84 80.84 95.285 80.385C95.495 80.32 95.71 80.26 95.96 80.235C95.73 80.605 95.5 80.98 95.27 81.35C95.25 81.385 95.21 81.415 95.195 81.45C94.925 82.065 94.38 82.205 93.79 82.325C92.605 82.57 91.415 82.71 90.205 82.685C88.355 82.64 86.57 82.275 84.875 81.52C84.78 81.48 84.685 81.445 84.545 81.39C84.675 81.845 84.78 82.26 84.915 82.665C84.94 82.74 85.07 82.805 85.165 82.835C85.79 83.025 86.41 83.22 87.045 83.375C88.08 83.625 89.145 83.73 90.205 83.735C91.32 83.745 92.43 83.665 93.545 83.455C93.285 83.705 93.035 83.96 92.765 84.195C92.485 84.44 92.19 84.67 91.885 84.885C91.76 84.97 91.595 85.035 91.445 85.045C90.485 85.115 89.53 85.065 88.575 84.98C87.505 84.885 86.455 84.685 85.42 84.345C85.42 84.4 85.41 84.45 85.42 84.49C85.505 84.795 85.585 85.1 85.685 85.4C85.71 85.475 85.8 85.57 85.87 85.585C86.635 85.73 87.4 85.885 88.175 85.995C88.73 86.075 89.29 86.095 89.905 86.145C87.1 87.6 84.185 88.1 81.135 87.695C78.4 87.33 75.96 86.255 73.83 84.5V84.415Z" fill="#123EDB"/>
<path d="M97.235 77.085C97.11 77.47 96.995 77.85 96.86 78.225C96.62 78.89 96.615 78.885 95.945 79.125C94.24 79.73 92.49 80.09 90.675 80.12C89.425 80.14 88.18 80.04 86.96 79.745C85.965 79.505 85.025 79.11 84.105 78.67C82.84 78.065 81.535 77.55 80.155 77.275C78.98 77.04 77.795 76.945 76.6 77.025C75.515 77.095 74.44 77.27 73.415 77.63C72.56 77.93 71.74 78.315 70.915 78.695C70.535 78.87 70.185 79.11 69.79 79.34C69.635 78.96 69.47 78.56 69.315 78.16C69.3 78.12 69.355 78.035 69.405 78C70.145 77.47 70.935 77.02 71.76 76.64C72.945 76.095 74.19 75.755 75.475 75.595C76.4 75.48 77.33 75.475 78.26 75.565C79.28 75.665 80.275 75.865 81.26 76.15C82.23 76.43 83.145 76.84 84.055 77.27C85.225 77.82 86.425 78.28 87.725 78.425C88.535 78.515 89.355 78.6 90.17 78.61C91.765 78.63 93.325 78.395 94.85 77.915C95.635 77.66 96.41 77.37 97.235 77.085Z" fill="#123EDB"/>
<path d="M1275.45 84.0349C1276.08 83.9027 1279.89 83.9027 1280.51 84.0349C1281.05 84.1583 1281.62 84.4466 1281.62 85.076C1281.59 85.6753 1281.24 86.2066 1280.75 86.544C1280.13 87.035 1279.39 87.3459 1278.61 87.458C1278.19 87.5134 1277.77 87.5146 1277.35 87.458C1276.58 87.3459 1275.84 87.035 1275.21 86.5427C1274.72 86.2066 1274.37 85.6753 1274.34 85.076C1274.34 84.4466 1274.92 84.1583 1275.45 84.0349ZM1278.06 62.5C1280.66 62.5 1283.31 63.7338 1284.89 65.7808C1285.91 67.099 1286.38 68.4158 1286.38 70.4629V70.9954C1286.38 72.5653 1286.8 73.4907 1287.71 74.557C1288.4 75.3426 1288.62 76.351 1288.62 77.445C1288.62 78.5378 1288.27 79.5752 1287.55 80.4174C1286.6 81.4271 1285.28 82.0717 1283.92 82.1837C1281.96 82.3512 1279.99 82.4922 1278 82.4922C1276.01 82.4922 1274.04 82.4078 1272.08 82.1837C1270.72 82.0717 1269.4 81.4271 1268.45 80.4174C1267.74 79.5752 1267.38 78.5378 1267.38 77.445C1267.38 76.351 1267.6 75.3426 1268.29 74.557C1269.23 73.4907 1269.62 72.5653 1269.62 70.9954V70.4629C1269.62 68.3604 1270.14 66.9856 1271.22 65.6398C1272.83 63.6771 1275.4 62.5 1277.94 62.5H1278.06Z" fill="white"/>
<rect x="366" y="44" width="483" height="60" rx="30" fill="#1E1E1E"/>
<path d="M435.248 68.848L432.016 80H430.384L427.792 71.024L425.104 80L423.488 80.016L420.368 68.848H421.92L424.352 78.304L427.04 68.848H428.672L431.232 78.272L433.68 68.848H435.248ZM441.193 71.072C441.855 71.072 442.452 71.216 442.985 71.504C443.519 71.7813 443.935 72.2027 444.233 72.768C444.543 73.3333 444.697 74.0213 444.697 74.832V80H443.257V75.04C443.257 74.1653 443.039 73.4987 442.601 73.04C442.164 72.5707 441.567 72.336 440.809 72.336C440.041 72.336 439.428 72.576 438.969 73.056C438.521 73.536 438.297 74.2347 438.297 75.152V80H436.841V68.16H438.297V72.48C438.585 72.032 438.98 71.6853 439.481 71.44C439.993 71.1947 440.564 71.072 441.193 71.072ZM455.076 75.28C455.076 75.5573 455.06 75.8507 455.028 76.16H448.02C448.073 77.024 448.366 77.7013 448.9 78.192C449.444 78.672 450.1 78.912 450.868 78.912C451.497 78.912 452.02 78.768 452.436 78.48C452.862 78.1813 453.161 77.7867 453.332 77.296H454.9C454.665 78.1387 454.196 78.8267 453.492 79.36C452.788 79.8827 451.913 80.144 450.868 80.144C450.036 80.144 449.289 79.9573 448.628 79.584C447.977 79.2107 447.465 78.6827 447.092 78C446.718 77.3067 446.532 76.5067 446.532 75.6C446.532 74.6933 446.713 73.8987 447.076 73.216C447.438 72.5333 447.945 72.0107 448.596 71.648C449.257 71.2747 450.014 71.088 450.868 71.088C451.7 71.088 452.436 71.2693 453.076 71.632C453.716 71.9947 454.206 72.496 454.548 73.136C454.9 73.7653 455.076 74.48 455.076 75.28ZM453.572 74.976C453.572 74.4213 453.449 73.9467 453.204 73.552C452.958 73.1467 452.622 72.8427 452.196 72.64C451.78 72.4267 451.316 72.32 450.804 72.32C450.068 72.32 449.438 72.5547 448.916 73.024C448.404 73.4933 448.11 74.144 448.036 74.976H453.572ZM458.454 72.656C458.71 72.1547 459.072 71.7653 459.542 71.488C460.022 71.2107 460.603 71.072 461.286 71.072V72.576H460.902C459.27 72.576 458.454 73.4613 458.454 75.232V80H456.998V71.232H458.454V72.656ZM470.966 75.28C470.966 75.5573 470.95 75.8507 470.918 76.16H463.91C463.964 77.024 464.257 77.7013 464.79 78.192C465.334 78.672 465.99 78.912 466.758 78.912C467.388 78.912 467.91 78.768 468.326 78.48C468.753 78.1813 469.052 77.7867 469.222 77.296H470.79C470.556 78.1387 470.086 78.8267 469.382 79.36C468.678 79.8827 467.804 80.144 466.758 80.144C465.926 80.144 465.18 79.9573 464.518 79.584C463.868 79.2107 463.356 78.6827 462.982 78C462.609 77.3067 462.422 76.5067 462.422 75.6C462.422 74.6933 462.604 73.8987 462.966 73.216C463.329 72.5333 463.836 72.0107 464.486 71.648C465.148 71.2747 465.905 71.088 466.758 71.088C467.59 71.088 468.326 71.2693 468.966 71.632C469.606 71.9947 470.097 72.496 470.438 73.136C470.79 73.7653 470.966 74.48 470.966 75.28ZM469.462 74.976C469.462 74.4213 469.34 73.9467 469.094 73.552C468.849 73.1467 468.513 72.8427 468.086 72.64C467.67 72.4267 467.206 72.32 466.694 72.32C465.958 72.32 465.329 72.5547 464.806 73.024C464.294 73.4933 464.001 74.144 463.926 74.976H469.462ZM478.93 72.432V77.6C478.93 78.0267 479.021 78.3307 479.202 78.512C479.383 78.6827 479.698 78.768 480.146 78.768H481.218V80H479.906C479.095 80 478.487 79.8133 478.082 79.44C477.677 79.0667 477.474 78.4533 477.474 77.6V72.432H476.338V71.232H477.474V69.024H478.93V71.232H481.218V72.432H478.93ZM486.806 80.144C485.985 80.144 485.238 79.9573 484.566 79.584C483.905 79.2107 483.382 78.6827 482.998 78C482.625 77.3067 482.438 76.5067 482.438 75.6C482.438 74.704 482.63 73.9147 483.014 73.232C483.409 72.5387 483.942 72.0107 484.614 71.648C485.286 71.2747 486.038 71.088 486.87 71.088C487.702 71.088 488.454 71.2747 489.126 71.648C489.798 72.0107 490.326 72.5333 490.71 73.216C491.105 73.8987 491.302 74.6933 491.302 75.6C491.302 76.5067 491.099 77.3067 490.694 78C490.299 78.6827 489.761 79.2107 489.078 79.584C488.395 79.9573 487.638 80.144 486.806 80.144ZM486.806 78.864C487.329 78.864 487.819 78.7413 488.278 78.496C488.737 78.2507 489.105 77.8827 489.382 77.392C489.67 76.9013 489.814 76.304 489.814 75.6C489.814 74.896 489.675 74.2987 489.398 73.808C489.121 73.3173 488.758 72.9547 488.31 72.72C487.862 72.4747 487.377 72.352 486.854 72.352C486.321 72.352 485.83 72.4747 485.382 72.72C484.945 72.9547 484.593 73.3173 484.326 73.808C484.059 74.2987 483.926 74.896 483.926 75.6C483.926 76.3147 484.054 76.9173 484.31 77.408C484.577 77.8987 484.929 78.2667 485.366 78.512C485.803 78.7467 486.283 78.864 486.806 78.864ZM501.098 71.088C501.855 71.088 502.517 71.2533 503.082 71.584C503.658 71.9147 504.085 72.3307 504.362 72.832V71.232H505.834V80.192C505.834 80.992 505.663 81.7013 505.322 82.32C504.981 82.9493 504.49 83.44 503.85 83.792C503.221 84.144 502.485 84.32 501.642 84.32C500.49 84.32 499.53 84.048 498.762 83.504C497.994 82.96 497.541 82.2187 497.402 81.28H498.842C499.002 81.8133 499.333 82.24 499.834 82.56C500.335 82.8907 500.938 83.056 501.642 83.056C502.442 83.056 503.093 82.8053 503.594 82.304C504.106 81.8027 504.362 81.0987 504.362 80.192V78.352C504.074 78.864 503.647 79.2907 503.082 79.632C502.517 79.9733 501.855 80.144 501.098 80.144C500.319 80.144 499.61 79.952 498.97 79.568C498.341 79.184 497.845 78.6453 497.482 77.952C497.119 77.2587 496.938 76.4693 496.938 75.584C496.938 74.688 497.119 73.904 497.482 73.232C497.845 72.5493 498.341 72.0213 498.97 71.648C499.61 71.2747 500.319 71.088 501.098 71.088ZM504.362 75.6C504.362 74.9387 504.229 74.3627 503.962 73.872C503.695 73.3813 503.333 73.008 502.874 72.752C502.426 72.4853 501.93 72.352 501.386 72.352C500.842 72.352 500.346 72.48 499.898 72.736C499.45 72.992 499.093 73.3653 498.826 73.856C498.559 74.3467 498.426 74.9227 498.426 75.584C498.426 76.256 498.559 76.8427 498.826 77.344C499.093 77.8347 499.45 78.2133 499.898 78.48C500.346 78.736 500.842 78.864 501.386 78.864C501.93 78.864 502.426 78.736 502.874 78.48C503.333 78.2133 503.695 77.8347 503.962 77.344C504.229 76.8427 504.362 76.2613 504.362 75.6ZM512.119 80.144C511.297 80.144 510.551 79.9573 509.879 79.584C509.217 79.2107 508.695 78.6827 508.311 78C507.937 77.3067 507.751 76.5067 507.751 75.6C507.751 74.704 507.943 73.9147 508.327 73.232C508.721 72.5387 509.255 72.0107 509.927 71.648C510.599 71.2747 511.351 71.088 512.183 71.088C513.015 71.088 513.767 71.2747 514.439 71.648C515.111 72.0107 515.639 72.5333 516.023 73.216C516.417 73.8987 516.615 74.6933 516.615 75.6C516.615 76.5067 516.412 77.3067 516.007 78C515.612 78.6827 515.073 79.2107 514.391 79.584C513.708 79.9573 512.951 80.144 512.119 80.144ZM512.119 78.864C512.641 78.864 513.132 78.7413 513.591 78.496C514.049 78.2507 514.417 77.8827 514.695 77.392C514.983 76.9013 515.127 76.304 515.127 75.6C515.127 74.896 514.988 74.2987 514.711 73.808C514.433 73.3173 514.071 72.9547 513.623 72.72C513.175 72.4747 512.689 72.352 512.167 72.352C511.633 72.352 511.143 72.4747 510.695 72.72C510.257 72.9547 509.905 73.3173 509.639 73.808C509.372 74.2987 509.239 74.896 509.239 75.6C509.239 76.3147 509.367 76.9173 509.623 77.408C509.889 77.8987 510.241 78.2667 510.679 78.512C511.116 78.7467 511.596 78.864 512.119 78.864ZM521.377 68.704C522.433 68.704 523.286 69.0027 523.937 69.6C524.588 70.1973 524.913 70.9973 524.913 72C524.913 73.12 524.566 73.952 523.873 74.496C523.18 75.0293 522.241 75.296 521.057 75.296L521.009 76.816H519.745L519.681 74.288H520.145C521.201 74.288 522.028 74.128 522.625 73.808C523.222 73.488 523.521 72.8853 523.521 72C523.521 71.36 523.329 70.8533 522.945 70.48C522.561 70.1067 522.044 69.92 521.393 69.92C520.732 69.92 520.209 70.1013 519.825 70.464C519.452 70.816 519.265 71.3013 519.265 71.92H517.889C517.889 71.28 518.033 70.72 518.321 70.24C518.609 69.7493 519.014 69.3707 519.537 69.104C520.07 68.8373 520.684 68.704 521.377 68.704ZM520.369 80.096C520.092 80.096 519.857 80 519.665 79.808C519.473 79.616 519.377 79.3813 519.377 79.104C519.377 78.8267 519.473 78.592 519.665 78.4C519.857 78.208 520.092 78.112 520.369 78.112C520.636 78.112 520.86 78.208 521.041 78.4C521.233 78.592 521.329 78.8267 521.329 79.104C521.329 79.3813 521.233 79.616 521.041 79.808C520.86 80 520.636 80.096 520.369 80.096Z" fill="#A1A1A1"/>
<path d="M406.216 79.2407C406.505 78.9528 406.97 78.9528 407.26 79.2407L409.176 80.7873H409.209C409.597 81.1791 409.597 81.8143 409.209 82.2061C408.822 82.5979 408.193 82.5979 407.806 82.2061L406.216 80.3839L406.155 80.3158C406.043 80.1735 405.981 79.9961 405.981 79.8123C405.981 79.5978 406.065 79.3921 406.216 79.2407ZM400.933 67.5C402.639 67.5 404.276 68.1851 405.482 69.4045C406.689 70.624 407.366 72.2779 407.366 74.0024C407.366 77.5936 404.486 80.5049 400.933 80.5049C397.38 80.5049 394.5 77.5936 394.5 74.0024C394.5 70.4112 397.38 67.5 400.933 67.5Z" fill="#A1A1A1"/>
<circle cx="84" cy="337" r="40" fill="#1E1E1E"/>
<path d="M80.5058 347.967V344.145C80.5058 343.169 81.3109 342.378 82.3041 342.378H85.9346C86.4116 342.378 86.869 342.564 87.2062 342.895C87.5435 343.227 87.7329 343.676 87.7329 344.145V347.967C87.7299 348.372 87.8918 348.762 88.1827 349.05C88.4736 349.338 88.8695 349.5 89.2824 349.5H91.7593C92.9161 349.503 94.0266 349.054 94.8456 348.251C95.6647 347.448 96.125 346.359 96.125 345.222V334.334C96.125 333.416 95.7108 332.545 94.994 331.956L86.568 325.345C85.1023 324.186 83.0022 324.223 81.5802 325.434L73.3465 331.956C72.5958 332.527 72.1472 333.401 72.125 334.334V345.211C72.125 347.58 74.0796 349.5 76.4907 349.5H78.9111C79.7687 349.5 80.4656 348.82 80.4718 347.978L80.5058 347.967Z" fill="#C1C1C1"/>
<circle cx="84" cy="441" r="40" fill="#505050"/>
<g clip-path="url(#clip0_1125_2)">
<path d="M72.3333 428.667C71.4493 428.667 70.6014 429.018 69.9763 429.643C69.3512 430.268 69 431.116 69 432V449.15L82.6333 435.517C82.4331 434.653 82.3324 433.77 82.3333 432.883C82.3333 431.367 82.6667 429.933 83.3167 428.667H72.3333ZM94 457C94.8841 457 95.7319 456.649 96.357 456.024C96.9821 455.399 97.3333 454.551 97.3333 453.667V441.767C96.0667 443.667 94.5167 445.683 92.8167 447.833L91.5 449.5L90.2 447.833C87.9833 445.083 86.0333 442.533 84.65 440.183C84.0833 439.217 83.6 438.267 83.2167 437.3L76.4333 444.083L89.35 457H94ZM69 453.667C69 454.551 69.3512 455.399 69.9763 456.024C70.6014 456.649 71.4493 457 72.3333 457H86.9833L75.25 445.267L69 451.517V453.667ZM91.5 447C95.85 441.383 99 437.167 99 432.95C99 428.75 95.6667 425.333 91.5 425.333C87.3333 425.333 84 428.75 84 432.95C84 437.167 87.1167 441.383 91.5 447ZM94.8333 432.833C94.8333 433.271 94.7471 433.705 94.5796 434.109C94.4121 434.513 94.1666 434.881 93.857 435.19C93.5475 435.5 93.18 435.745 92.7756 435.913C92.3712 436.08 91.9377 436.167 91.5 436.167C91.0623 436.167 90.6288 436.08 90.2244 435.913C89.82 435.745 89.4525 435.5 89.143 435.19C88.8334 434.881 88.5879 434.513 88.4204 434.109C88.2529 433.705 88.1667 433.271 88.1667 432.833C88.1667 431.949 88.5179 431.101 89.143 430.476C89.7681 429.851 90.6159 429.5 91.5 429.5C92.3841 429.5 93.2319 429.851 93.857 430.476C94.4821 431.101 94.8333 431.949 94.8333 432.833Z" fill="#E7E7E7"/>
</g>
<circle cx="84" cy="545" r="40" fill="#1E1E1E"/>
<g clip-path="url(#clip1_1125_2)">
<path d="M84.0002 530.333C92.1002 530.333 98.6668 536.9 98.6668 545C98.6668 553.1 92.1002 559.667 84.0002 559.667C75.9002 559.667 69.3335 553.1 69.3335 545C69.3335 536.9 75.9002 530.333 84.0002 530.333ZM84.0002 532.333C77.0048 532.333 71.3335 538.005 71.3335 545C71.3335 551.995 77.0048 557.667 84.0002 557.667C90.9955 557.667 96.6668 551.995 96.6668 545C96.6668 538.005 90.9955 532.333 84.0002 532.333ZM89.6315 540.597L87.6315 547.93C87.5857 548.098 87.4969 548.251 87.3739 548.374C87.2509 548.497 87.098 548.586 86.9302 548.631L79.5968 550.631C79.4267 550.678 79.2474 550.678 79.077 550.633C78.9065 550.588 78.7511 550.498 78.6264 550.374C78.5018 550.249 78.4123 550.094 78.367 549.923C78.3218 549.753 78.3224 549.573 78.3688 549.403L80.3688 542.07C80.4146 541.902 80.5034 541.749 80.6264 541.626C80.7494 541.503 80.9024 541.414 81.0702 541.369L88.4035 539.369C88.5736 539.322 88.7529 539.322 88.9234 539.367C89.0938 539.412 89.2492 539.502 89.3739 539.626C89.4986 539.751 89.5881 539.906 89.6333 540.077C89.6785 540.247 89.6779 540.427 89.6315 540.597ZM87.2415 541.759L82.1482 543.148L80.7588 548.241L85.8522 546.852L87.2415 541.759Z" fill="#D0D0D0"/>
</g>
<circle cx="84" cy="649" r="40" fill="#1E1E1E"/>
<path d="M84 636.5C90.8895 636.5 96.5 642.108 96.5 649.007C96.5 655.892 90.8895 661.5 84 661.5C77.1105 661.5 71.5 655.892 71.5 649.007C71.5 642.108 77.1105 636.5 84 636.5ZM82.5763 644.037C82.3108 644.037 82.0574 644.098 81.8161 644.218C81.5145 644.387 81.2732 644.652 81.1404 644.966C81.056 645.183 80.9233 645.834 80.9233 645.846C80.7905 646.558 80.7181 647.716 80.7181 648.994C80.7181 650.213 80.7905 651.322 80.8991 652.045C80.9112 652.057 81.0439 652.865 81.1887 653.143C81.4542 653.649 81.973 653.963 82.528 653.963H82.5763C82.9382 653.951 83.6984 653.637 83.6984 653.625C84.9773 653.094 87.499 651.442 88.5125 650.345L88.5849 650.272C88.7177 650.14 88.8866 649.935 88.9228 649.886C89.1158 649.633 89.2124 649.32 89.2124 649.007C89.2124 648.656 89.1038 648.331 88.8986 648.065C88.8504 648.017 88.6694 647.812 88.5005 647.643C87.5111 646.582 84.9291 644.845 83.5777 644.315C83.3726 644.232 82.8538 644.049 82.5763 644.037Z" fill="#A2A1A1"/>
<circle cx="84" cy="753" r="40" fill="#1E1E1E"/>
<path d="M84.8965 740.5C85.8418 740.5 86.6977 741.025 87.1704 741.8C87.4003 742.175 87.5536 742.638 87.5153 743.125C87.4897 743.5 87.6047 743.875 87.8091 744.225C88.4606 745.288 89.9041 745.688 91.0283 745.088C92.2929 744.363 93.8898 744.8 94.6179 746.038L95.4738 747.513C96.2147 748.75 95.8059 750.338 94.5285 751.05C93.4427 751.688 93.0594 753.1 93.7109 754.175C93.9153 754.513 94.1452 754.8 94.5029 754.975C94.95 755.213 95.2949 755.588 95.5377 755.963C96.0103 756.738 95.972 757.688 95.5121 758.525L94.6179 760.025C94.1452 760.825 93.2638 761.325 92.3568 761.325C91.9097 761.325 91.4115 761.2 91.0027 760.95C90.6706 760.738 90.2874 760.663 89.8786 760.663C88.6139 760.663 87.5536 761.7 87.5153 762.938C87.5153 764.375 86.34 765.5 84.871 765.5H83.1337C81.6518 765.5 80.4766 764.375 80.4766 762.938C80.451 761.7 79.3907 760.663 78.1261 760.663C77.7045 760.663 77.3213 760.738 77.0019 760.95C76.5931 761.2 76.0821 761.325 75.6478 761.325C74.7281 761.325 73.8466 760.825 73.374 760.025L72.4925 758.525C72.0199 757.713 71.9943 756.738 72.467 755.963C72.6714 755.588 73.0546 755.213 73.4889 754.975C73.8466 754.8 74.0766 754.513 74.2937 754.175C74.9324 753.1 74.5492 751.688 73.4634 751.05C72.1987 750.338 71.7899 748.75 72.5181 747.513L73.374 746.038C74.1149 744.8 75.6989 744.363 76.9764 745.088C78.0877 745.688 79.5313 745.288 80.1828 744.225C80.3871 743.875 80.5021 743.5 80.4766 743.125C80.451 742.638 80.5915 742.175 80.8343 741.8C81.3069 741.025 82.1628 740.525 83.0953 740.5H84.8965ZM84.0151 749.475C82.0095 749.475 80.3871 751.05 80.3871 753.013C80.3871 754.975 82.0095 756.538 84.0151 756.538C86.0207 756.538 87.6047 754.975 87.6047 753.013C87.6047 751.05 86.0207 749.475 84.0151 749.475Z" fill="#A2A1A1"/>
<path d="M370 399.333C420.625 399.333 461.667 440.375 461.667 491C461.667 541.625 420.625 582.667 370 582.667C319.375 582.667 278.333 541.625 278.333 491C278.333 440.375 319.375 399.333 370 399.333ZM370 411.833C326.279 411.833 290.833 447.279 290.833 491C290.833 534.721 326.279 570.167 370 570.167C413.721 570.167 449.167 534.721 449.167 491C449.167 447.279 413.721 411.833 370 411.833ZM405.196 463.479L392.696 509.312C392.41 510.361 391.855 511.317 391.086 512.086C390.317 512.855 389.361 513.41 388.313 513.696L342.479 526.196C341.416 526.486 340.295 526.49 339.23 526.207C338.165 525.924 337.194 525.365 336.414 524.586C335.635 523.807 335.076 522.835 334.793 521.77C334.51 520.705 334.514 519.584 334.804 518.521L347.304 472.687C347.591 471.639 348.146 470.683 348.914 469.914C349.683 469.145 350.639 468.59 351.688 468.304L397.521 455.804C398.584 455.514 399.705 455.51 400.77 455.793C401.835 456.076 402.807 456.635 403.586 457.414C404.365 458.193 404.924 459.165 405.207 460.23C405.49 461.295 405.486 462.416 405.196 463.479ZM390.258 470.742L358.425 479.425L349.742 511.258L381.575 502.575L390.258 470.742Z" fill="#4E4E4E"/>
<rect x="150" y="138" width="1246" height="845" rx="15" fill="#1E1E1E"/>
<defs>
<clipPath id="clip0_1125_2">
<rect width="44" height="48.4" fill="white" transform="translate(65 426)"/>
</clipPath>
<clipPath id="clip1_1125_2">
<rect width="30" height="30" fill="white" transform="translate(69 530)"/>
</clipPath>
</defs>
</svg>
